<svg width="16" height="16" viewBox="0 0 4.233 4.233" xmlns="http://www.w3.org/2000/svg"><path d="M2.117.265A1.852 1.852 0 0 0 .265 2.117a1.852 1.852 0 0 0 1.852 1.852 1.852 1.852 0 0 0 1.852-1.852A1.852 1.852 0 0 0 2.117.265zm0 .264a1.587 1.587 0 0 1 1.587 1.588 1.587 1.587 0 0 1-1.587 1.587A1.587 1.587 0 0 1 .529 2.117 1.587 1.587 0 0 1 2.117.529zm-.703.689a.198.198 0 0 0-.137.342l.559.559-.559.558a.198.198 0 1 0 .28.281l.56-.559.559.56a.199.199 0 0 0 .28-.282l-.559-.558.56-.559a.198.198 0 0 0-.144-.341.198.198 0 0 0-.137.06l-.56.56-.56-.56a.198.198 0 0 0-.142-.061z" fill="#fff"/></svg>