<svg width="16" height="16" viewBox="0 0 4.233 4.233" xmlns="http://www.w3.org/2000/svg"><path d="M2.117.265A1.852 1.852 0 0 0 .265 2.117a1.852 1.852 0 0 0 1.852 1.852 1.852 1.852 0 0 0 1.852-1.852A1.852 1.852 0 0 0 2.117.265zm0 .264a1.587 1.587 0 0 1 1.587 1.588 1.587 1.587 0 0 1-1.587 1.587A1.587 1.587 0 0 1 .529 2.117 1.587 1.587 0 0 1 2.117.529zm-.004.598a.198.198 0 0 0-.195.203v.987a.198.198 0 1 0 .397 0V1.33a.198.198 0 0 0-.202-.203zm-.001 1.544a.248.248 0 0 0-.248.248.248.248 0 0 0 .248.248.248.248 0 0 0 .248-.248.248.248 0 0 0-.248-.248z" fill="#fff"/></svg>