<svg width="16" height="16" viewBox="0 0 4.233 4.233" xmlns="http://www.w3.org/2000/svg"><path d="M2.117.265A1.852 1.852 0 0 0 .265 2.117a1.852 1.852 0 0 0 1.852 1.852 1.852 1.852 0 0 0 1.852-1.852A1.852 1.852 0 0 0 2.117.265zm0 .264a1.587 1.587 0 0 1 1.587 1.588 1.587 1.587 0 0 1-1.587 1.587A1.587 1.587 0 0 1 .529 2.117 1.587 1.587 0 0 1 2.117.529zm0 .596a.993.993 0 0 0-.86.496.165.165 0 1 0 .286.166.655.655 0 0 1 1.097-.064.198.198 0 1 0 0 .396h.395a.198.198 0 0 0 .197-.197v-.394a.198.198 0 0 0-.2-.202.198.198 0 0 0-.182.126.991.991 0 0 0-.733-.327zm-.505.996a.198.198 0 0 0-.006 0H1.21a.198.198 0 0 0-.02 0 .198.198 0 0 0-.177.197v.395a.198.198 0 0 0 .382.082.992.992 0 0 0 1.58-.184.165.165 0 1 0-.287-.164.659.659 0 0 1-.572.33.659.659 0 0 1-.52-.26h.009a.198.198 0 1 0 .006-.396z" fill="#fff"/></svg>