<svg width="16" height="16" viewBox="0 0 4.233 4.233" xmlns="http://www.w3.org/2000/svg"><path d="M2.117.265A1.852 1.852 0 0 0 .265 2.117a1.852 1.852 0 0 0 1.852 1.852 1.852 1.852 0 0 0 1.852-1.852A1.852 1.852 0 0 0 2.117.265zm0 .264a1.587 1.587 0 0 1 1.587 1.588 1.587 1.587 0 0 1-1.587 1.587A1.587 1.587 0 0 1 .529 2.117 1.587 1.587 0 0 1 2.117.529zm-.4.598a.198.198 0 0 0-.196.203v1.58a.198.198 0 1 0 .397 0V1.33a.198.198 0 0 0-.201-.203zm.793 0a.198.198 0 0 0-.195.203v1.58a.2.2 0 0 0 .398 0V1.33a.198.198 0 0 0-.203-.203z" fill="#fff"/></svg>