<svg xmlns="http://www.w3.org/2000/svg" data-name="Layer 1" viewBox="0 0 266 126"><path d="M241.471 38.307a17.58 17.58 0 1 0 17.579 17.58 17.58 17.58 0 0 0-17.579-17.58zm10.291 24.62L241.469 65.5l-10.29-2.572v-2.574l10.29 2.573 10.293-2.573zm0-5.735-10.293 2.573-10.29-2.573V54.62l10.29 2.572 10.293-2.572zm0-5.772L241.469 54l-10.29-2.576v-2.577l10.29-2.572 10.293 2.572zM166.991 40.2a24.244 24.244 0 0 0-12.377-3.2 25.092 25.092 0 0 0-9.694 1.844 23.021 23.021 0 0 0-12.714 12.812 25.338 25.338 0 0 0-1.814 9.632 25.816 25.816 0 0 0 1.75 9.508 22.7 22.7 0 0 0 12.551 12.873 26.738 26.738 0 0 0 17.056.938 23.386 23.386 0 0 0 11.034-6.986 26.213 26.213 0 0 0 3.293-4.688l-9.314-4.976a15.168 15.168 0 0 1-4.362 5.253 12.651 12.651 0 0 1-7.854 2.408 13.549 13.549 0 0 1-12.869-8.787 15.946 15.946 0 0 1 .035-11.156 14.007 14.007 0 0 1 2.877-4.614 13.557 13.557 0 0 1 4.447-3.1 13.968 13.968 0 0 1 5.644-1.139 13.032 13.032 0 0 1 7.342 2.043 14.072 14.072 0 0 1 4.4 4.715l8.83-5.6a24.323 24.323 0 0 0-8.261-7.78zM19.155 69.42c0 6.2 4.831 8.614 10.312 8.614 3.59 0 9.071-1.041 9.071-5.808 0-5.022-6.982-5.872-13.835-7.7-6.919-1.828-13.9-4.5-13.9-13.247 0-9.528 9.007-14.1 17.424-14.1 9.725 0 18.666 4.245 18.666 15.012h-9.92c-.327-5.612-4.31-7.047-9.2-7.047-3.262 0-7.049 1.371-7.049 5.288 0 3.587 2.222 4.044 13.9 7.046 3.4.85 13.837 3 13.837 13.572C48.459 79.6 41.737 86 29.074 86 18.765 86 9.1 80.909 9.237 69.42zM64.316 47.045h-13.1v-8.738h36.592v8.738h-13.1v38.532H64.316zM101.743 38.307H112.4l17.676 47.27h-10.79L115.71 75.05H98.034l-3.709 10.527H83.8zm-.995 29H113l-5.959-17.341h-.141z" style="fill:#fff"/><path d="M181.747 38.307h10.393V57.9l18.471-19.595h12.975l-18.471 18.67 20.261 28.6h-13.043L198.1 64.328l-5.959 6.021v15.228h-10.394z" style="fill:#fff"/></svg>