<svg xmlns="http://www.w3.org/2000/svg" viewBox="0 0 4.233 4.233" height="16" width="16"><path style="fill:#000;stroke-width:.178592" d="M1.608 2.112c.027.069.058.124.115.044.072-.048.314-.255.296-.06-.065.36-.148.717-.208 1.078-.07.199.113.369.292.234.192-.09.355-.23.523-.36-.026-.057-.045-.14-.107-.061-.083.043-.262.235-.303.084.057-.39.174-.767.244-1.154.071-.18-.065-.397-.25-.243-.224.11-.409.282-.602.438zM2.404.778c-.234-.004-.34.383-.115.478.183.068.37-.127.32-.312a.201.201 0 0 0-.205-.167zM3.97 2.114a1.852 1.852 0 0 1-1.852 1.852A1.852 1.852 0 0 1 .265 2.114 1.852 1.852 0 0 1 2.117.262a1.852 1.852 0 0 1 1.852 1.852z"/></svg>